# xmcd
#
# Track frame offsets:
# 150
# 17775
# 37612
# 52080
# 67278
# 83570
# 98778
# 122905
# 140747
# 159512
# 178505
#
# Disc length: 2617 seconds
#
#
# Revision: 0
# Processed by: cddbd v1.5.2PL0 Copyright (c) Steve Scherf et al.
# Submitted via: FreeRIP 2.942 
#
DISCID=920a370b
DTITLE=Cornbread Red - The Bluegrass Tribute to MercyMe
DYEAR=2006
DGENRE=Bluegrass
TTITLE0=I Can Only Imagine
TTITLE1=How Great Is Your Love
TTITLE2=Your Glory Goes On
TTITLE3=In the Blink of an Eye
TTITLE4=Word of God Speak
TTITLE5=A Million Miles Away
TTITLE6=Here Am I
TTITLE7=The Love of God
TTITLE8=Here with Me
TTITLE9=Bless Me Indeed
TTITLE10=Homesick
EXTD=
EXTT0=
EXTT1=
EXTT2=
EXTT3=
EXTT4=
EXTT5=
EXTT6=
EXTT7=
EXTT8=
EXTT9=
EXTT10=
PLAYORDER=
